<mxfile host="app.diagrams.net" modified="2021-11-30T09:54:57.080Z" agent="5.0 (Windows NT 10.0; Win64; x64) AppleWebKit/537.36 (KHTML, like Gecko) Chrome/96.0.4664.45 Safari/537.36" etag="scEOSjISXQbRRgmWcok9" version="15.7.2" type="github">
  <diagram id="kgpKYQtTHZ0yAKxKKP6v" name="Page-1">
    <mxGraphModel dx="1422" dy="794" grid="1" gridSize="10" guides="1" tooltips="1" connect="1" arrows="1" fold="1" page="1" pageScale="1" pageWidth="2000" pageHeight="4100" math="0" shadow="0">
      <root>
        <mxCell id="0" />
        <mxCell id="1" parent="0" />
        <mxCell id="t21uhHJnaAxaSKALmI4W-7" value=":AdManagementSample" style="shape=umlLifeline;perimeter=lifelinePerimeter;whiteSpace=wrap;html=1;container=1;collapsible=0;recursiveResize=0;outlineConnect=0;" vertex="1" parent="1">
          <mxGeometry x="120" y="80" width="80" height="3880" as="geometry" />
        </mxCell>
        <mxCell id="t21uhHJnaAxaSKALmI4W-8" value=":PropertiesLoader" style="shape=umlLifeline;perimeter=lifelinePerimeter;whiteSpace=wrap;html=1;container=1;collapsible=0;recursiveResize=0;outlineConnect=0;" vertex="1" parent="1">
          <mxGeometry x="280" y="80" width="80" height="3880" as="geometry" />
        </mxCell>
        <mxCell id="t21uhHJnaAxaSKALmI4W-9" value=":RestClient" style="shape=umlLifeline;perimeter=lifelinePerimeter;whiteSpace=wrap;html=1;container=1;collapsible=0;recursiveResize=0;outlineConnect=0;" vertex="1" parent="1">
          <mxGeometry x="440" y="80" width="80" height="3880" as="geometry" />
        </mxCell>
        <mxCell id="t21uhHJnaAxaSKALmI4W-10" value=":Anonymous" style="shape=umlLifeline;perimeter=lifelinePerimeter;whiteSpace=wrap;html=1;container=1;collapsible=0;recursiveResize=0;outlineConnect=0;" vertex="1" parent="1">
          <mxGeometry x="600" y="80" width="80" height="3880" as="geometry" />
        </mxCell>
        <mxCell id="t21uhHJnaAxaSKALmI4W-11" value=":CustomerLinks" style="shape=umlLifeline;perimeter=lifelinePerimeter;whiteSpace=wrap;html=1;container=1;collapsible=0;recursiveResize=0;outlineConnect=0;" vertex="1" parent="1">
          <mxGeometry x="760" y="80" width="80" height="3880" as="geometry" />
        </mxCell>
        <mxCell id="t21uhHJnaAxaSKALmI4W-12" value=":Signatures" style="shape=umlLifeline;perimeter=lifelinePerimeter;whiteSpace=wrap;html=1;container=1;collapsible=0;recursiveResize=0;outlineConnect=0;" vertex="1" parent="1">
          <mxGeometry x="920" y="80" width="80" height="3880" as="geometry" />
        </mxCell>
        <mxCell id="t21uhHJnaAxaSKALmI4W-13" value=":Campaigns" style="shape=umlLifeline;perimeter=lifelinePerimeter;whiteSpace=wrap;html=1;container=1;collapsible=0;recursiveResize=0;outlineConnect=0;" vertex="1" parent="1">
          <mxGeometry x="1080" y="80" width="80" height="3880" as="geometry" />
        </mxCell>
        <mxCell id="t21uhHJnaAxaSKALmI4W-14" value=":Channels" style="shape=umlLifeline;perimeter=lifelinePerimeter;whiteSpace=wrap;html=1;container=1;collapsible=0;recursiveResize=0;outlineConnect=0;" vertex="1" parent="1">
          <mxGeometry x="1240" y="80" width="80" height="3880" as="geometry" />
        </mxCell>
        <mxCell id="t21uhHJnaAxaSKALmI4W-15" value="Adgroups" style="shape=umlLifeline;perimeter=lifelinePerimeter;whiteSpace=wrap;html=1;container=1;collapsible=0;recursiveResize=0;outlineConnect=0;" vertex="1" parent="1">
          <mxGeometry x="1400" y="80" width="80" height="3880" as="geometry" />
        </mxCell>
        <mxCell id="t21uhHJnaAxaSKALmI4W-16" value="Channel" style="shape=umlLifeline;perimeter=lifelinePerimeter;whiteSpace=wrap;html=1;container=1;collapsible=0;recursiveResize=0;outlineConnect=0;" vertex="1" parent="1">
          <mxGeometry x="1560" y="80" width="80" height="3880" as="geometry" />
        </mxCell>
        <mxCell id="t21uhHJnaAxaSKALmI4W-17" value="Adgroup" style="shape=umlLifeline;perimeter=lifelinePerimeter;whiteSpace=wrap;html=1;container=1;collapsible=0;recursiveResize=0;outlineConnect=0;" vertex="1" parent="1">
          <mxGeometry x="1720" y="80" width="80" height="3880" as="geometry" />
        </mxCell>
        <mxCell id="t21uhHJnaAxaSKALmI4W-18" value="Schedules" style="shape=umlLifeline;perimeter=lifelinePerimeter;whiteSpace=wrap;html=1;container=1;collapsible=0;recursiveResize=0;outlineConnect=0;" vertex="1" parent="1">
          <mxGeometry x="1880" y="80" width="80" height="3880" as="geometry" />
        </mxCell>
        <mxCell id="t21uhHJnaAxaSKALmI4W-19" value="ScheduleBuilder" style="shape=umlLifeline;perimeter=lifelinePerimeter;whiteSpace=wrap;html=1;container=1;collapsible=0;recursiveResize=0;outlineConnect=0;" vertex="1" parent="1">
          <mxGeometry x="2040" y="80" width="80" height="3880" as="geometry" />
        </mxCell>
        <mxCell id="t21uhHJnaAxaSKALmI4W-20" value=":Ad" style="shape=umlLifeline;perimeter=lifelinePerimeter;whiteSpace=wrap;html=1;container=1;collapsible=0;recursiveResize=0;outlineConnect=0;" vertex="1" parent="1">
          <mxGeometry x="2200" y="80" width="80" height="3880" as="geometry" />
        </mxCell>
        <mxCell id="t21uhHJnaAxaSKALmI4W-21" value=":Ads" style="shape=umlLifeline;perimeter=lifelinePerimeter;whiteSpace=wrap;html=1;container=1;collapsible=0;recursiveResize=0;outlineConnect=0;" vertex="1" parent="1">
          <mxGeometry x="2360" y="80" width="80" height="3880" as="geometry" />
        </mxCell>
        <mxCell id="t21uhHJnaAxaSKALmI4W-22" value=":Keyword" style="shape=umlLifeline;perimeter=lifelinePerimeter;whiteSpace=wrap;html=1;container=1;collapsible=0;recursiveResize=0;outlineConnect=0;" vertex="1" parent="1">
          <mxGeometry x="2520" y="80" width="80" height="3880" as="geometry" />
        </mxCell>
        <mxCell id="t21uhHJnaAxaSKALmI4W-23" value=":Keywords" style="shape=umlLifeline;perimeter=lifelinePerimeter;whiteSpace=wrap;html=1;container=1;collapsible=0;recursiveResize=0;outlineConnect=0;" vertex="1" parent="1">
          <mxGeometry x="2680" y="80" width="80" height="3880" as="geometry" />
        </mxCell>
        <mxCell id="t21uhHJnaAxaSKALmI4W-24" value=":AdExtension" style="shape=umlLifeline;perimeter=lifelinePerimeter;whiteSpace=wrap;html=1;container=1;collapsible=0;recursiveResize=0;outlineConnect=0;" vertex="1" parent="1">
          <mxGeometry x="2840" y="80" width="80" height="3880" as="geometry" />
        </mxCell>
        <mxCell id="t21uhHJnaAxaSKALmI4W-25" value=":AdExtensions" style="shape=umlLifeline;perimeter=lifelinePerimeter;whiteSpace=wrap;html=1;container=1;collapsible=0;recursiveResize=0;outlineConnect=0;" vertex="1" parent="1">
          <mxGeometry x="3000" y="80" width="80" height="3880" as="geometry" />
        </mxCell>
      </root>
    </mxGraphModel>
  </diagram>
</mxfile>
